<?xml version="1.0" ?><!DOCTYPE svg  PUBLIC '-//W3C//DTD SVG 1.1//EN'  'http://www.w3.org/Graphics/SVG/1.1/DTD/svg11.dtd'><svg enable-background="new 0 0 64 64" height="64px" id="Layer_1" version="1.1" viewBox="0 0 64 64" width="64px" xml:space="preserve" xmlns="http://www.w3.org/2000/svg" xmlns:xlink="http://www.w3.org/1999/xlink"><g><path d="M32,10.138c-13.326,0-24.129,10.803-24.129,24.129c0,13.323,10.803,24.128,24.129,24.128   c13.324,0,24.129-10.805,24.129-24.128C56.129,20.941,45.324,10.138,32,10.138z M32,55.728c-11.852,0-21.461-9.609-21.461-21.46   c0-11.852,9.609-21.461,21.461-21.461c11.852,0,21.461,9.609,21.461,21.461C53.461,46.118,43.852,55.728,32,55.728z" fill="#241F20"/><path d="M19.531,8.348c1.104-0.509,0.948-1.297,0.784-1.685L20.195,6.43c-0.486-0.949-1.29-0.881-1.748-0.749   C7.815,10.282,0.307,20.702-0.01,32.95c0.059,0.832,0.498,1.034,0.797,1.069h0.717c0.333-0.062,0.792-0.335,0.878-1.333   c0.006-0.081,0.018-0.146,0.031-0.209c0.7-10.823,7.492-19.955,16.984-24.058C19.448,8.394,19.474,8.375,19.531,8.348z" fill="#241F20"/><path d="M45.889,5.825c-1.234-0.491-1.803,0.082-2,0.405l-0.262,0.509c-0.133,0.339-0.23,1.086,1.07,1.707   c0.029,0.015,0.049,0.028,0.076,0.042c9.447,4.156,16.176,13.314,16.822,24.136c0.006-0.001,0.02-0.008,0.02-0.008   s-0.047,1.425,1.131,1.425h0.322c0.318-0.026,0.883-0.216,0.941-1.101C63.695,20.826,56.34,10.498,45.889,5.825z" fill="#241F20"/><path d="M42.965,30.423c-0.672-1.076-2.133-2.506-3.244-3.523c-0.225-0.204-0.461-0.2-0.609-0.102   c-0.309,0.173-0.223,0.476-0.223,0.476l-0.018-0.011c0.598,1.112,0.984,2.396,1.027,4.068c0.01,0.909-0.047,1.545-0.049,1.557   c-0.023,0.139-0.049,0.261-0.074,0.37c-0.076,0.37-0.58,1.461-1.295,1.161c-0.715-0.299-0.758-1.445-0.758-1.445   s-0.006,0.003-0.01,0.003c-0.549-6.366-3.484-10.137-5.735-12.115c-0.002-0.002-0.005-0.005-0.007-0.007   c-0.001-0.001-0.004-0.003-0.007-0.006c-0.903-0.79-1.688-1.293-2.165-1.566c-0.053-0.027-0.108-0.054-0.178-0.099   c-0.114-0.074-0.203-0.108-0.3-0.153c0.002,0.001,0.002,0.003,0.002,0.003c-0.064-0.033-0.13-0.059-0.196-0.09   c-0.427-0.13-0.638,0.063-0.743,0.301c-0.004,0.02-0.089,0.498,0.242,1.464c0.001,0.001,0,0.001,0.001,0.002   c0.911,2.47,2.021,6.841,0.857,11.526c-0.219,0.781-0.929,1.354-1.22,1.354c-1.03,0.105-1.506-0.651-1.694-1.087   c-0.033-0.092-0.074-0.178-0.103-0.278c0-0.003-0.004-0.017-0.004-0.017c-0.617-2.201,0.139-5.494,0.668-7.331   c0.355-1.359-1.313,0.001-1.313,0.001l-0.006,0.004l0,0c-0.328,0.276-0.681,0.589-1.053,0.935l-0.002-0.013   c-0.47,0.43-1.091,1.027-1.73,1.71c-0.346,0.37-4.954,5.441-3.517,12.366c1.381,5.597,6.414,9.751,12.437,9.751   c6.532,0,11.911-4.882,12.723-11.193c0.031-0.255,0.059-0.508,0.072-0.76c0.006-0.08,0.008-0.162,0.012-0.246   C44.865,34.53,43.918,32.104,42.965,30.423z" fill="#241F20"/></g></svg>